# xmcd CD database file generated by Grip 3.2.0
# 
# Track frame offsets:
#       150
#       14483
#       30244
#       46333
#       61302
#       75033
#       90203
#       102579
#       116127
#       129574
#       144997
#       161531
#       176934
#       190786
#       205088
#       219289
# 
# Disc length: 3139 seconds
# 
# Revision: 2
# Processed by: cddbd v1.5.2PL0 Copyright (c) Steve Scherf et al.
# Submitted via: Grip 3.2.0
# 
DISCID=ca0c4110
DTITLE=Various Artist - Romantic Jazz - Disc Two
DYEAR=2000
DGENRE=Jazz
TTITLE0=Casa Loma Orchestra - Blue Prelude
TTITLE1=Frances Wayne - Happiness Is a Thing Called Joe
TTITLE2=Hoagy Carmichael - Stardust
TTITLE3=Charlie Barnett - Lament for a Lost Love
TTITLE4=Billie Holiday - Man I Love
TTITLE5=Duke Ellington - Warm Valley
TTITLE6=Erroll Garner - Laura
TTITLE7=Duke Ellington - Prelude to a Kiss
TTITLE8=Benny Carter - Melancholy Lullaby
TTITLE9=Glenn Miller and His Orchestra - Sunrise Serenade
TTITLE10=Coleman Hawkins - Day You Came Along
TTITLE11=King Cole Trio - All for You
TTITLE12=Benny Carter - Cocktails for Two
TTITLE13=Frank Sinatra - I'll Never Smile Again
TTITLE14=Count Basie - Blue and Sentimental
TTITLE15=Tommy Dorsey - I'm Getting Sentimental over You
EXTD=YEAR: 2000
EXTT0=
EXTT1=
EXTT2=
EXTT3=
EXTT4=
EXTT5=
EXTT6=
EXTT7=
EXTT8=
EXTT9=
EXTT10=
EXTT11=
EXTT12=
EXTT13=
EXTT14=
EXTT15=
PLAYORDER=
